<?xml version="1.0" standalone="no"?>
<!DOCTYPE svg PUBLIC "-//W3C//DTD SVG 20010904//EN"
 "http://www.w3.org/TR/2001/REC-SVG-20010904/DTD/svg10.dtd">
<svg version="1.0" xmlns="http://www.w3.org/2000/svg"
 width="1280.000000pt" height="510.000000pt" viewBox="0 0 1280.000000 510.000000"
 preserveAspectRatio="xMidYMid meet">

<g transform="translate(0.000000,510.000000) scale(0.100000,-0.100000)"
fill="#000000" stroke="none">
<path d="M0 3785 l0 -1315 1245 0 1245 0 0 -1235 0 -1235 3545 0 3545 0 0
1240 0 1240 1610 0 1610 0 0 1310 0 1310 -6400 0 -6400 0 0 -1315z m2490 10
l0 -1185 -1185 0 -1185 0 0 1185 0 1185 1185 0 1185 0 0 -1185z m10190 0 l0
-1185 -5020 0 -5020 0 0 1185 0 1185 5020 0 5020 0 0 -1185z m-3240 -2500 l0
-1175 -3405 0 -3405 0 0 1175 0 1175 3405 0 3405 0 0 -1175z"/>
<path d="M1040 4331 c-80 -17 -164 -81 -201 -152 -90 -177 55 -512 401 -923
l65 -77 43 48 c70 78 213 271 277 373 192 309 218 552 70 664 -116 89 -251 91
-358 4 l-39 -30 -26 25 c-59 55 -155 84 -232 68z m540 -136 c127 -66 117 -213
-32 -473 -44 -78 -170 -263 -222 -325 l-23 -28 -75 98 c-190 248 -297 463
-298 599 0 44 38 95 90 122 80 40 145 25 230 -54 l49 -46 63 56 c34 31 76 61
92 66 36 10 89 4 126 -15z"/>
<path d="M4662 4385 c-29 -8 -65 -21 -80 -29 -43 -22 -99 -90 -111 -133 -15
-52 -15 -834 0 -887 14 -52 79 -119 142 -147 41 -18 70 -23 142 -24 105 0 171
19 229 67 76 63 76 58 76 548 0 490 0 485 -76 548 -74 61 -217 87 -322 57z
m193 -176 l25 -24 0 -405 1 -405 -31 -27 c-25 -23 -40 -28 -81 -28 -55 0 -103
20 -119 49 -14 27 -14 795 0 821 30 55 158 67 205 19z"/>
<path d="M10072 4385 c-29 -8 -65 -21 -80 -29 -44 -23 -100 -91 -112 -136 -7
-27 -10 -179 -8 -463 l3 -422 27 -46 c51 -87 163 -135 297 -127 132 8 230 70
261 164 8 22 14 89 14 154 l1 115 -86 3 -87 3 -4 -112 c-3 -111 -3 -111 -36
-140 -27 -24 -41 -29 -83 -29 -55 0 -103 20 -119 49 -6 13 -10 162 -10 411 0
249 4 398 10 411 31 56 157 66 208 15 26 -25 27 -32 29 -134 l2 -107 91 -3 90
-3 -4 123 c-4 145 -19 192 -78 243 -22 19 -61 41 -87 50 -68 23 -176 28 -239
10z"/>
<path d="M3500 3780 l0 -600 90 0 90 0 0 520 0 520 145 0 145 0 0 -520 0 -520
90 0 90 0 0 600 0 600 -325 0 -325 0 0 -600z"/>
<path d="M5340 3781 l0 -601 203 0 c111 0 218 5 237 10 62 17 126 65 157 117
27 46 28 54 31 199 3 136 2 155 -17 191 -20 41 -83 103 -103 103 -7 0 2 15 19
33 57 58 73 108 73 231 0 128 -11 172 -58 226 -66 78 -89 84 -329 88 l-213 4
0 -601z m394 408 c25 -29 26 -37 26 -140 0 -106 -1 -109 -29 -141 -29 -33 -31
-33 -118 -33 l-88 0 -3 173 -2 172 94 0 c93 0 95 0 120 -31z m-10 -484 c54
-26 66 -59 66 -180 0 -168 -25 -195 -180 -195 l-90 0 0 195 0 195 86 0 c56 0
97 -5 118 -15z"/>
<path d="M6250 3780 l0 -600 265 0 265 0 0 80 0 80 -175 0 -175 0 0 190 0 190
145 0 145 0 0 80 0 80 -145 0 -145 0 0 170 0 170 175 0 175 0 0 80 0 80 -265
0 -265 0 0 -600z"/>
<path d="M7070 3781 l0 -601 90 0 90 0 0 230 0 230 98 0 c168 0 257 43 309
148 27 55 28 62 28 222 0 160 -1 167 -27 216 -15 29 -44 66 -65 83 -66 54
-108 63 -325 68 l-198 5 0 -601z m378 419 c52 -32 64 -74 60 -211 -3 -115 -4
-119 -32 -148 -36 -37 -80 -51 -163 -51 l-63 0 0 215 0 215 83 0 c65 0 89 -4
115 -20z"/>
<path d="M7930 3780 l0 -600 90 0 90 0 0 270 0 270 145 0 145 0 0 -270 0 -270
90 0 90 0 0 600 0 600 -90 0 -90 0 0 -250 0 -250 -145 0 -145 0 0 250 0 250
-90 0 -90 0 0 -600z"/>
<path d="M8910 3780 l0 -601 86 3 86 3 146 364 147 364 3 -367 2 -366 90 0 90
0 0 600 0 601 -82 -3 -82 -3 -146 -362 c-80 -200 -149 -366 -153 -369 -4 -4
-7 160 -7 364 l0 372 -90 0 -90 0 0 -600z"/>
<path d="M10770 3779 l0 -601 203 3 202 4 69 34 c53 26 74 43 97 79 44 70 51
110 47 276 -4 169 -13 201 -79 267 -51 51 -113 70 -246 76 l-113 6 0 228 0
229 -90 0 -90 0 0 -601z m331 -19 c19 0 42 -12 67 -34 l37 -34 3 -137 4 -136
-40 -39 -40 -40 -91 0 -91 0 0 209 0 210 48 4 c26 2 53 2 60 0 8 -2 27 -3 43
-3z"/>
<path d="M3480 1855 c0 -8 59 -139 130 -292 l131 -277 -136 -283 c-74 -156
-135 -292 -135 -303 0 -18 7 -20 88 -20 l89 0 132 271 c118 242 134 270 154
267 l22 -3 3 -267 2 -268 90 0 89 0 0 268 c0 263 0 267 21 270 18 3 38 -31
152 -267 l132 -271 93 0 c72 0 93 3 93 14 0 7 -61 142 -135 298 -74 157 -135
290 -135 296 0 5 56 131 125 278 69 147 125 276 125 286 0 17 -8 18 -91 16
l-92 -3 -118 -245 c-109 -228 -120 -245 -144 -245 l-26 0 -2 245 -2 245 -87 3
-88 3 -2 -248 -3 -248 -26 -3 c-24 -3 -32 11 -147 248 l-121 250 -91 0 c-72 0
-90 -3 -90 -15z"/>
<path d="M4850 1275 l0 -595 83 0 82 0 150 372 150 372 3 -372 2 -372 90 0 90
0 0 595 0 596 -87 -3 -86 -3 -146 -362 -146 -362 -3 365 -2 364 -90 0 -90 0 0
-595z"/>
<path d="M5800 1275 l0 -595 218 0 c188 0 222 3 257 19 59 26 97 63 125 117
23 46 25 59 25 199 0 140 -2 153 -24 192 -14 24 -42 55 -63 69 l-38 26 35 41
c46 53 65 120 65 226 0 148 -39 229 -132 275 -51 25 -56 26 -260 26 l-208 0 0
-595z m369 431 c43 -23 51 -52 44 -173 -6 -100 -8 -110 -34 -135 -26 -26 -33
-28 -113 -28 l-86 0 0 175 0 175 80 0 c51 0 91 -5 109 -14z m29 -506 c44 -27
52 -54 52 -176 0 -167 -25 -194 -180 -194 l-90 0 0 195 0 195 93 0 c74 0 98
-4 125 -20z"/>
<path d="M6670 1275 l0 -596 87 3 87 3 143 355 c79 195 148 359 153 364 7 7
10 -121 10 -357 l0 -367 90 0 90 0 0 595 -1 596 -87 -3 -87 -3 -93 -230 c-51
-126 -118 -293 -150 -370 l-57 -140 -3 373 -2 372 -90 0 -90 0 0 -595z"/>
<path d="M7630 1275 l0 -595 85 0 85 0 2 406 3 406 120 -235 c66 -129 123
-230 126 -224 4 7 59 113 123 237 l116 225 0 -407 0 -408 85 0 85 0 0 595 0
595 -80 0 -80 0 -125 -250 c-69 -138 -129 -249 -133 -246 -5 3 -62 115 -127
250 l-119 246 -83 0 -83 0 0 -595z"/>
</g>
</svg>
